<?xml version="1.0" encoding="UTF-8"?>
<svg width="228px" height="46px" viewBox="0 0 228 46" version="1.1" xmlns="http://www.w3.org/2000/svg" xmlns:xlink="http://www.w3.org/1999/xlink">
    <title>fintelligent copy</title>
    <defs>
        <linearGradient x1="14.922237%" y1="48.0133196%" x2="30.9500514%" y2="50%" id="linearGradient-1">
            <stop stop-color="#64E3C3" offset="0%"></stop>
            <stop stop-color="#34D399" offset="100%"></stop>
            <stop stop-color="#34D399" offset="100%"></stop>
        </linearGradient>
    </defs>
    <g id="Page-1" stroke="none" stroke-width="1" fill="none" fill-rule="evenodd">
        <g id="fintelligent-copy" transform="translate(0.552000, -0.004000)" fill="url(#linearGradient-1)" fill-rule="nonzero">
            <path d="M153.48,9.084 L155.832,13.02 L152.376,14.748 C153,15.852 153.336,17.148 153.336,18.588 C153.336,21.036 152.472,23.004 150.792,24.492 C149.112,25.932 147,26.652 144.456,26.652 C143.256,26.652 142.056,26.46 140.952,26.124 C140.184,26.556 139.8,27.18 139.8,27.948 C139.8,29.148 140.568,29.724 142.056,29.724 L142.056,29.724 L147,29.724 C152.184,29.724 155.496,32.268 155.496,36.828 C155.496,38.7 154.92,40.284 153.816,41.58 C151.56,44.22 148.344,45.18 144.504,45.18 C141.288,45.18 138.648,44.508 136.584,43.116 C134.568,41.724 133.56,39.756 133.56,37.212 C133.56,35.244 134.232,33.612 135.528,32.412 C134.712,31.404 134.28,30.156 134.28,28.668 C134.28,26.46 135.288,24.78 137.256,23.58 C136.152,22.188 135.576,20.556 135.576,18.588 C135.576,16.14 136.44,14.172 138.12,12.684 C139.8,11.196 141.912,10.428 144.456,10.428 C146.04,10.428 147.528,10.764 148.92,11.484 L148.92,11.484 L153.48,9.084 Z M139.608,34.524 C139.272,35.052 139.08,35.772 139.08,36.732 C139.08,38.988 141.24,40.188 144.504,40.188 C147.864,40.188 149.544,39.18 149.544,37.212 C149.544,35.532 148.248,34.716 145.656,34.716 L145.656,34.716 L142.392,34.716 C141.288,34.716 140.376,34.668 139.608,34.524 Z M63.456,1.02 L63.456,10.812 L69.84,10.812 L69.84,15.9 L63.456,15.9 L63.456,26.364 C63.456,29.244 64.512,30.3 66.624,30.3 C67.44,30.3 68.208,30.108 68.928,29.724 L68.928,29.724 L70.32,34.524 C69.072,35.1 67.776,35.388 66.384,35.388 C60.816,35.388 57.504,32.364 57.504,26.46 L57.504,26.46 L57.504,15.9 L53.76,15.9 L53.76,10.812 L57.504,10.812 L57.504,4.764 L63.456,1.02 Z M84.552,10.428 C88.392,10.428 91.512,12.012 93.24,14.46 C94.968,16.812 95.832,19.644 95.832,22.38 L95.832,22.38 L95.832,24.828 L79.176,24.828 C79.32,27.756 81.432,30.3 84.888,30.3 C87.336,30.3 89.304,29.052 90.744,26.556 L90.744,26.556 L95.544,28.332 C93.48,33.036 89.832,35.388 84.552,35.388 C76.248,35.388 72.936,28.668 72.936,22.908 C72.936,17.148 76.248,10.428 84.552,10.428 Z M169.392,10.428 C173.232,10.428 176.352,12.012 178.08,14.46 C179.808,16.812 180.672,19.644 180.672,22.38 L180.672,22.38 L180.672,24.828 L164.016,24.828 C164.16,27.756 166.272,30.3 169.728,30.3 C172.176,30.3 174.144,29.052 175.584,26.556 L175.584,26.556 L180.384,28.332 C178.32,33.036 174.672,35.388 169.392,35.388 C161.088,35.388 157.776,28.668 157.776,22.908 C157.776,17.148 161.088,10.428 169.392,10.428 Z M219.792,1.02 L219.792,10.812 L226.176,10.812 L226.176,15.9 L219.792,15.9 L219.792,26.364 C219.792,29.244 220.848,30.3 222.96,30.3 C223.776,30.3 224.544,30.108 225.264,29.724 L225.264,29.724 L226.656,34.524 C225.408,35.1 224.112,35.388 222.72,35.388 C217.152,35.388 213.84,32.364 213.84,26.46 L213.84,26.46 L213.84,15.9 L210.096,15.9 L210.096,10.812 L213.84,10.812 L213.84,4.764 L219.792,1.02 Z M14.304,1.02 C17.136,1.02 19.488,1.5 21.264,2.412 L21.264,2.412 L19.392,6.924 C18.048,6.396 16.464,6.108 14.64,6.108 C11.136,6.108 9.024,7.692 9.024,10.572 L9.024,10.572 L9.024,10.812 L22.608,10.812 L22.608,35.004 L16.656,35.004 L16.656,15.9 L9.024,15.9 L9.024,35.004 L3.072,35.004 L3.072,15.9 L0,15.9 L0,10.812 L3.072,10.812 L3.072,10.524 C3.072,4.236 7.392,1.02 14.304,1.02 Z M42.6,10.428 C47.064,10.428 50.04,12.972 50.04,17.724 L50.04,17.724 L50.04,35.004 L44.088,35.004 L44.088,19.5 C44.088,16.86 42.936,15.516 40.632,15.516 C37.56,15.516 35.112,19.26 35.112,25.356 L35.112,25.356 L35.112,35.004 L29.16,35.004 L29.16,10.812 L35.112,10.812 L35.112,14.7 C37.08,11.868 39.576,10.428 42.6,10.428 Z M106.464,1.02 L106.464,35.004 L100.512,35.004 L100.512,1.02 L106.464,1.02 Z M117.624,1.02 L117.624,35.004 L111.672,35.004 L111.672,1.02 L117.624,1.02 Z M129.264,10.812 L129.264,35.004 L123.312,35.004 L123.312,10.812 L129.264,10.812 Z M198.936,10.428 C203.4,10.428 206.376,12.972 206.376,17.724 L206.376,17.724 L206.376,35.004 L200.424,35.004 L200.424,19.5 C200.424,16.86 199.272,15.516 196.968,15.516 C193.896,15.516 191.448,19.26 191.448,25.356 L191.448,25.356 L191.448,35.004 L185.496,35.004 L185.496,10.812 L191.448,10.812 L191.448,14.7 C193.416,11.868 195.912,10.428 198.936,10.428 Z M144.456,15.228 C142.536,15.228 141.144,16.62 141.144,18.588 C141.144,20.508 142.536,21.852 144.456,21.852 C146.376,21.852 147.768,20.508 147.768,18.588 C147.768,16.62 146.376,15.228 144.456,15.228 Z M84.552,15.516 C81.72,15.516 79.752,17.58 79.32,20.124 L79.32,20.124 L89.736,20.124 C89.064,17.052 87.336,15.516 84.552,15.516 Z M169.392,15.516 C166.56,15.516 164.592,17.58 164.16,20.124 L164.16,20.124 L174.576,20.124 C173.904,17.052 172.176,15.516 169.392,15.516 Z M123.552,1.116 C125.04,-0.372 127.536,-0.372 129.024,1.116 C130.512,2.604 130.512,5.1 129.024,6.588 C127.536,8.076 125.04,8.076 123.552,6.588 C122.064,5.1 122.064,2.604 123.552,1.116 Z" id="Combined-Shape"></path>
        </g>
    </g>
</svg>